<svg xmlns="http://www.w3.org/2000/svg" viewBox="0 0 512 512"><defs><linearGradient id="bg" x1="0" x2="1" y1="0" y2="1"><stop offset="0%" stop-color="#080d16"/><stop offset="100%" stop-color="#0d1a2e"/></linearGradient><linearGradient id="gold" x1="0" x2="0" y1="0" y2="1"><stop offset="0%" stop-color="gold"/><stop offset="100%" stop-color="#c80"/></linearGradient><filter id="glow"><feGaussianBlur result="blur" stdDeviation="4"/><feMerge><feMergeNode in="blur"/><feMergeNode in="SourceGraphic"/></feMerge></filter></defs><rect width="512" height="512" fill="url(#bg)" rx="96"/><rect width="504" height="504" x="4" y="4" fill="none" stroke="#00d084" stroke-width="6" opacity=".5" rx="92"/><path fill="#e8eaf0" d="M60 160 Q60 80 140 80 Q220 80 220 148 Q220 200 160 236 L60 300 L230 300 L230 340 L40 340 L40 288 L140 224 Q180 198 180 148 Q180 118 140 118 Q100 118 100 160 Z" opacity=".9"/><path fill="#e8eaf0" d="M290 80 L340 80 L340 200 Q368 168 400 170 Q460 175 460 250 Q460 320 400 330 Q330 338 310 278 Q285 278 285 250 Q285 190 290 80 Z" opacity=".9"/><ellipse cx="395" cy="252" fill="#080d16" rx="48" ry="48"/><ellipse cx="395" cy="252" fill="#e8eaf0" opacity=".9" rx="28" ry="28"/><ellipse cx="395" cy="252" fill="#080d16" rx="12" ry="12"/><path fill="url(#gold)" d="M185 300 Q185 390 256 415 Q327 390 327 300 Z" filter="url(#glow)"/><rect width="32" height="48" x="240" y="413" fill="url(#gold)" rx="6"/><rect width="112" height="24" x="200" y="458" fill="url(#gold)" rx="8"/><path fill="none" stroke="url(#gold)" stroke-linecap="round" stroke-width="10" d="M185 320 Q148 320 148 355 Q148 388 185 380" filter="url(#glow)"/><path fill="none" stroke="url(#gold)" stroke-linecap="round" stroke-width="10" d="M327 320 Q364 320 364 355 Q364 388 327 380" filter="url(#glow)"/><ellipse cx="256" cy="460" fill="#00d084" opacity=".3" rx="56" ry="10"/><text x="256" y="510" fill="#00d084" font-family="Arial,sans-serif" font-size="28" font-weight="900" letter-spacing="8" opacity=".8" text-anchor="middle">FIFA</text></svg>