<svg xmlns="http://www.w3.org/2000/svg" viewBox="0 0 512 512"><rect width="512" height="512" fill="#2d2b55" rx="80"/><circle cx="80" cy="60" r="2.5" fill="rgba(255,255,255,0.45)"/><circle cx="155" cy="90" r="1.8" fill="rgba(255,255,255,0.35)"/><circle cx="240" cy="50" r="2" fill="rgba(255,255,255,0.4)"/><circle cx="330" cy="80" r="1.5" fill="rgba(255,255,255,0.3)"/><circle cx="420" cy="55" r="2.5" fill="rgba(255,255,255,0.45)"/><circle cx="460" cy="100" r="1.8" fill="rgba(255,255,255,0.35)"/><circle cx="60" cy="130" r="1.5" fill="rgba(255,255,255,0.3)"/><circle cx="380" cy="130" r="2" fill="rgba(255,255,255,0.4)"/><rect width="512" height="117" x="0" y="395" fill="#3a3870"/><line x1="0" x2="512" y1="395" y2="395" stroke="rgba(255,255,255,0.75)" stroke-width="3"/><circle cx="90" cy="345" r="6" fill="rgba(232,64,64,0.55)"/><circle cx="65" cy="345" r="4" fill="rgba(232,64,64,0.35)"/><circle cx="44" cy="345" r="3" fill="rgba(232,64,64,0.18)"/><circle cx="262" cy="317" r="6" fill="rgba(58,142,255,0.55)"/><circle cx="237" cy="317" r="4" fill="rgba(58,142,255,0.35)"/><circle cx="216" cy="317" r="3" fill="rgba(58,142,255,0.18)"/><g transform="translate(106,295)"><rect width="100" height="100" fill="#e84040" rx="16"/><rect width="74" height="74" x="13" y="13" fill="rgba(0,0,0,0.28)" rx="8"/><rect width="74" height="33" x="13" y="13" fill="rgba(255,255,255,0.12)" rx="8"/><rect width="21" height="21" x="20" y="26" fill="#fff"/><rect width="10" height="10" x="26" y="32" fill="#1a1833"/><rect width="21" height="21" x="59" y="26" fill="#fff"/><rect width="10" height="10" x="65" y="32" fill="#1a1833"/><rect width="11" height="11" x="20" y="71" fill="rgba(255,255,255,0.75)"/><rect width="11" height="11" x="45" y="71" fill="rgba(255,255,255,0.75)"/><rect width="11" height="11" x="69" y="71" fill="rgba(255,255,255,0.75)"/></g><g transform="translate(306,267)"><rect width="100" height="100" fill="#3a8eff" rx="16"/><rect width="74" height="74" x="13" y="13" fill="rgba(0,0,0,0.28)" rx="8"/><rect width="74" height="33" x="13" y="13" fill="rgba(255,255,255,0.12)" rx="8"/><rect width="21" height="21" x="20" y="26" fill="#fff"/><rect width="10" height="10" x="26" y="32" fill="#1a1833"/><rect width="21" height="21" x="59" y="26" fill="#fff"/><rect width="10" height="10" x="65" y="32" fill="#1a1833"/><rect width="11" height="11" x="20" y="71" fill="rgba(255,255,255,0.75)"/><rect width="11" height="11" x="45" y="71" fill="rgba(255,255,255,0.75)"/><rect width="11" height="11" x="69" y="71" fill="rgba(255,255,255,0.75)"/></g></svg>