<svg xmlns="http://www.w3.org/2000/svg" viewBox="0 0 512 512"><rect width="512" height="512" fill="#0d0d0d" rx="80"/><circle cx="256" cy="256" r="210" fill="none" stroke="#FF4757" stroke-dasharray="1" stroke-width="18" opacity=".25"/><circle cx="256" cy="256" r="165" fill="none" stroke="#FFA502" stroke-dasharray="1" stroke-width="18" opacity=".25"/><circle cx="256" cy="256" r="120" fill="none" stroke="#2ED573" stroke-dasharray="1" stroke-width="18" opacity=".25"/><circle cx="256" cy="256" r="75" fill="none" stroke="#A29BFE" stroke-dasharray="1" stroke-width="18" opacity=".25"/><circle cx="256" cy="46" r="13" fill="#FF4757"/><circle cx="404.7" cy="107.3" r="9" fill="#FF4757" opacity=".35"/><circle cx="466" cy="256" r="13" fill="#FF4757"/><circle cx="404.7" cy="404.7" r="9" fill="#FF4757" opacity=".35"/><circle cx="256" cy="466" r="13" fill="#FF4757"/><circle cx="107.3" cy="404.7" r="9" fill="#FF4757" opacity=".35"/><circle cx="46" cy="256" r="13" fill="#FF4757"/><circle cx="107.3" cy="107.3" r="9" fill="#FF4757" opacity=".35"/><circle cx="421" cy="256" r="12" fill="#FFA502"/><circle cx="256" cy="421" r="12" fill="#FFA502"/><circle cx="91" cy="256" r="12" fill="#FFA502"/><circle cx="373.7" cy="139.4" r="8" fill="#FFA502" opacity=".3"/><circle cx="373.7" cy="372.6" r="8" fill="#FFA502" opacity=".3"/><circle cx="138.3" cy="372.6" r="8" fill="#FFA502" opacity=".3"/><circle cx="138.3" cy="139.4" r="8" fill="#FFA502" opacity=".3"/><circle cx="256" cy="91" r="8" fill="#FFA502" opacity=".3"/><circle cx="256" cy="136" r="10" fill="#2ED573"/><circle cx="341" cy="171" r="10" fill="#2ED573"/><circle cx="376" cy="256" r="10" fill="#2ED573"/><circle cx="341" cy="341" r="10" fill="#2ED573"/><circle cx="256" cy="376" r="10" fill="#2ED573"/><circle cx="171" cy="341" r="10" fill="#2ED573"/><circle cx="136" cy="256" r="10" fill="#2ED573"/><circle cx="171" cy="171" r="10" fill="#2ED573"/><circle cx="256" cy="181" r="9" fill="#A29BFE"/><circle cx="331" cy="256" r="9" fill="#A29BFE"/><circle cx="256" cy="331" r="9" fill="#A29BFE"/><circle cx="181" cy="256" r="9" fill="#A29BFE" opacity=".4"/><line x1="256" x2="256" y1="256" y2="50" stroke="#fff" stroke-linecap="round" stroke-width="4" opacity=".9"/><circle cx="256" cy="256" r="22" fill="#1a1a1a" stroke="#fff" stroke-width="3" opacity=".9"/><circle cx="256" cy="256" r="8" fill="#fff" opacity=".85"/></svg>