<svg xmlns="http://www.w3.org/2000/svg" viewBox="0 0 512 512"><rect width="512" height="512" fill="#0d9488" rx="80"/><ellipse cx="240" cy="195" fill="none" stroke="#fff" stroke-width="22" rx="115" ry="135"/><line x1="130" x2="350" y1="145" y2="145" stroke="#fff" stroke-linecap="round" stroke-width="9"/><line x1="126" x2="354" y1="180" y2="180" stroke="#fff" stroke-linecap="round" stroke-width="9"/><line x1="126" x2="354" y1="215" y2="215" stroke="#fff" stroke-linecap="round" stroke-width="9"/><line x1="130" x2="350" y1="250" y2="250" stroke="#fff" stroke-linecap="round" stroke-width="9"/><line x1="185" x2="185" y1="62" y2="328" stroke="#fff" stroke-linecap="round" stroke-width="9"/><line x1="220" x2="220" y1="60" y2="330" stroke="#fff" stroke-linecap="round" stroke-width="9"/><line x1="260" x2="260" y1="60" y2="330" stroke="#fff" stroke-linecap="round" stroke-width="9"/><line x1="295" x2="295" y1="62" y2="328" stroke="#fff" stroke-linecap="round" stroke-width="9"/><rect width="36" height="110" x="222" y="328" fill="#fff" rx="18"/><rect width="72" height="20" x="204" y="418" fill="rgba(255,255,255,0.6)" rx="10"/><rect width="140" height="130" x="330" y="340" fill="#fff" rx="16"/><rect width="140" height="40" x="330" y="340" fill="#0d9488" rx="16"/><rect width="140" height="20" x="330" y="360" fill="#0d9488"/><rect width="14" height="28" x="358" y="328" fill="#fff" rx="7"/><rect width="14" height="28" x="442" y="328" fill="#fff" rx="7"/><rect width="14" height="14" x="350" y="402" fill="#0d9488" rx="4"/><rect width="14" height="14" x="378" y="402" fill="#0d9488" rx="4"/><rect width="14" height="14" x="406" y="402" fill="#10b981" rx="4"/><rect width="14" height="14" x="434" y="402" fill="#0d9488" rx="4"/><rect width="14" height="14" x="350" y="428" fill="#0d9488" rx="4"/><rect width="14" height="14" x="378" y="428" fill="#10b981" rx="4"/><rect width="14" height="14" x="406" y="428" fill="#0d9488" rx="4"/><rect width="14" height="14" x="434" y="428" fill="#10b981" rx="4"/></svg>